<svg width="173" height="46" viewBox="0 0 173 46" fill="none" xmlns="http://www.w3.org/2000/svg">
<path d="M4.00436 40.0758H3.05374V31.7133H6.2324C7.15331 31.7133 7.85638 31.9361 8.3416 32.3817C8.82681 32.8273 9.06942 33.4907 9.06942 34.372C9.06942 35.1939 8.81691 35.8277 8.31189 36.2733C7.81677 36.7189 7.12361 36.9417 6.2324 36.9417H4.00436V40.0758ZM6.12842 32.5302H4.00436V36.199H6.12842C6.78198 36.199 7.287 36.0505 7.64348 35.7534C8.00987 35.4465 8.19306 34.986 8.19306 34.372C8.19306 33.7383 8.01482 33.2729 7.65833 32.9758C7.31175 32.6787 6.80178 32.5302 6.12842 32.5302ZM14.0343 40.2243C13.3709 40.2243 12.8213 40.0758 12.3856 39.7787C11.9598 39.4718 11.6429 39.0806 11.435 38.6053C11.2369 38.1201 11.1379 37.62 11.1379 37.1051C11.1379 36.5407 11.2468 36.0257 11.4647 35.5603C11.6924 35.085 12.0192 34.7087 12.445 34.4315C12.8807 34.1542 13.4006 34.0156 14.0046 34.0156C14.777 34.0156 15.4207 34.2681 15.9356 34.7731C16.4505 35.2682 16.7278 35.9366 16.7674 36.7783C16.7773 36.8179 16.7822 36.8773 16.7822 36.9566C16.7822 37.0259 16.7822 37.0902 16.7822 37.1497H12.0588C12.0588 37.8527 12.2272 38.4073 12.5638 38.8133C12.9104 39.2093 13.3956 39.4074 14.0195 39.4074C14.4849 39.4074 14.881 39.2886 15.2078 39.0509C15.5444 38.8133 15.7524 38.4914 15.8316 38.0854H16.7674C16.6684 38.6994 16.3762 39.2093 15.891 39.6153C15.4058 40.0213 14.7869 40.2243 14.0343 40.2243ZM12.0885 36.6298H15.8019C15.8019 36.4218 15.7425 36.1743 15.6237 35.8871C15.5147 35.5999 15.3266 35.3524 15.0592 35.1444C14.8018 34.9266 14.4453 34.8177 13.9898 34.8177C13.5739 34.8177 13.2322 34.9068 12.9649 35.085C12.6975 35.2633 12.4945 35.491 12.3559 35.7683C12.2172 36.0455 12.1281 36.3327 12.0885 36.6298ZM22.0726 40.2243C21.4884 40.2243 20.9982 40.0907 20.6021 39.8233C20.216 39.5559 19.9238 39.1895 19.7258 38.7241C19.5376 38.2488 19.4436 37.719 19.4436 37.1348C19.4436 36.2337 19.6664 35.491 20.112 34.9068C20.5576 34.3225 21.2161 34.0304 22.0875 34.0304C22.4935 34.0304 22.8302 34.0997 23.0975 34.2384C23.3748 34.3671 23.5976 34.5255 23.7659 34.7137C23.9343 34.9018 24.0581 35.0751 24.1373 35.2336C24.2165 35.392 24.266 35.496 24.2858 35.5455H24.3155L24.3304 31.7133H25.3107V40.0758H24.4789L24.3304 38.739H24.3007C24.2809 38.7885 24.2264 38.8925 24.1373 39.0509C24.0482 39.2093 23.9145 39.3777 23.7362 39.5559C23.5679 39.7342 23.3451 39.8926 23.0678 40.0312C22.8005 40.16 22.4687 40.2243 22.0726 40.2243ZM22.3103 39.3777C22.8945 39.3777 23.3699 39.1796 23.7362 38.7835C24.1125 38.3776 24.3007 37.828 24.3007 37.1348C24.3007 36.4515 24.1274 35.9119 23.7808 35.5158C23.4342 35.1098 22.9688 34.9068 22.3846 34.9068C21.9192 34.9068 21.5379 35.0157 21.2408 35.2336C20.9438 35.4415 20.7259 35.7138 20.5873 36.0505C20.4487 36.3872 20.3793 36.7486 20.3793 37.1348C20.3793 37.5111 20.4437 37.8725 20.5724 38.2191C20.7012 38.5558 20.9042 38.8331 21.1814 39.0509C21.4587 39.2688 21.835 39.3777 22.3103 39.3777ZM28.0048 40.0758V34.0304H28.8663L28.9703 35.6197C29.0297 35.3524 29.1485 35.0949 29.3267 34.8474C29.505 34.5998 29.7476 34.4018 30.0546 34.2532C30.3714 34.0948 30.7626 34.0205 31.228 34.0304H31.5102V35.085H31.2131C30.5794 35.085 30.0991 35.1791 29.7723 35.3672C29.4555 35.5455 29.2376 35.798 29.1188 36.1248C29.0099 36.4515 28.9554 36.8278 28.9554 37.2536V40.0758H28.0048ZM36.3067 40.2243C35.3363 40.2243 34.6085 39.9372 34.1233 39.3628C33.648 38.7786 33.4103 38.0359 33.4103 37.1348C33.4004 36.2238 33.6381 35.4811 34.1233 34.9068C34.6184 34.3225 35.3462 34.0255 36.3067 34.0156C37.2574 34.0156 37.9753 34.3027 38.4605 34.8771C38.9556 35.4415 39.2032 36.1941 39.2032 37.1348C39.2032 37.719 39.0992 38.2439 38.8913 38.7093C38.6833 39.1747 38.3664 39.546 37.9406 39.8233C37.5148 40.0907 36.9702 40.2243 36.3067 40.2243ZM36.3067 39.3925C36.8217 39.3925 37.2178 39.2787 37.495 39.0509C37.7822 38.8232 37.9802 38.536 38.0892 38.1894C38.208 37.8329 38.2674 37.4715 38.2674 37.1051C38.2674 36.7387 38.208 36.3773 38.0892 36.0208C37.9802 35.6643 37.7822 35.3722 37.495 35.1444C37.2178 34.9167 36.8217 34.8028 36.3067 34.8028C35.7918 34.8028 35.3908 34.9167 35.1036 35.1444C34.8263 35.3722 34.6283 35.6643 34.5095 36.0208C34.4005 36.3773 34.3461 36.7387 34.3461 37.1051C34.3461 37.4715 34.4005 37.8329 34.5095 38.1894C34.6283 38.536 34.8263 38.8232 35.1036 39.0509C35.3908 39.2787 35.7918 39.3925 36.3067 39.3925ZM46.9914 40.0758V31.7133H47.9421V39.244H52.5764V40.0758H46.9914ZM57.0885 40.2243C56.5933 40.2243 56.1923 40.1352 55.8853 39.957C55.5883 39.7787 55.3605 39.5411 55.2021 39.244C55.0436 38.937 54.9347 38.6053 54.8753 38.2488C54.8258 37.8824 54.801 37.516 54.801 37.1497V34.0304H55.7516V37.1645C55.7516 37.5606 55.7913 37.927 55.8705 38.2637C55.9497 38.6004 56.1081 38.8677 56.3458 39.0658C56.5933 39.2638 56.9498 39.3628 57.4152 39.3628C57.8608 39.3628 58.2074 39.2638 58.455 39.0658C58.7125 38.8578 58.9006 38.5905 59.0194 38.2637C59.1383 37.9369 59.2076 37.5953 59.2274 37.2388V34.0304H60.2077V40.0758H59.3908L59.2274 38.7241H59.1977C59.1482 38.8925 59.0442 39.0955 58.8857 39.3331C58.7273 39.5708 58.4996 39.7787 58.2025 39.957C57.9153 40.1352 57.544 40.2243 57.0885 40.2243ZM63.9109 40.0907H62.9454V31.7133H63.9109V37.3428L67.2084 34.0156H68.4264L65.7824 36.6298L68.4858 40.0907H67.3123L65.0992 37.2982L63.9109 38.4716V40.0907ZM72.6256 40.2095C72.0711 40.2095 71.6156 40.0758 71.2591 39.8084C70.9026 39.5312 70.6352 39.1598 70.457 38.6944C70.2887 38.229 70.2045 37.6992 70.2045 37.1051C70.2045 36.1941 70.4025 35.4465 70.7986 34.8622C71.2046 34.2681 71.8136 33.971 72.6256 33.971C73.0415 33.971 73.3881 34.0453 73.6654 34.1938C73.9525 34.3324 74.1803 34.5057 74.3486 34.7137C74.5269 34.9216 74.6556 35.1197 74.7348 35.3078H74.7497V34.0304H75.73V40.0758H74.9131L74.7645 38.9024H74.7348C74.6457 39.1004 74.517 39.3034 74.3486 39.5114C74.1803 39.7094 73.9525 39.8778 73.6654 40.0164C73.3881 40.1451 73.0415 40.2095 72.6256 40.2095ZM72.9969 39.3628C73.6109 39.3628 74.0515 39.1598 74.3189 38.7538C74.5962 38.3478 74.7348 37.8032 74.7348 37.12C74.7348 36.3872 74.5912 35.8277 74.3041 35.4415C74.0268 35.0553 73.5911 34.8622 72.9969 34.8622C72.3434 34.8622 71.873 35.0801 71.5859 35.5158C71.3086 35.9416 71.17 36.4713 71.17 37.1051C71.17 37.7686 71.3135 38.3132 71.6007 38.739C71.8879 39.1549 72.3533 39.3628 72.9969 39.3628ZM80.5835 40.2243C80.0092 40.2243 79.5339 40.1055 79.1576 39.8679C78.7912 39.6203 78.5139 39.3331 78.3258 39.0064C78.1475 38.6796 78.0584 38.3875 78.0584 38.13H78.9793C78.9793 38.1399 78.9843 38.2142 78.9942 38.3528C79.014 38.4914 79.0684 38.6499 79.1576 38.8281C79.2467 39.0064 79.4002 39.1648 79.618 39.3034C79.8359 39.4322 80.1528 39.4965 80.5687 39.4965C81.0143 39.4965 81.3955 39.4173 81.7124 39.2589C82.0392 39.1004 82.1976 38.8529 82.1877 38.5162C82.1877 38.229 82.0887 38.0112 81.8906 37.8626C81.7025 37.7042 81.4549 37.5854 81.1479 37.5061C80.841 37.417 80.5191 37.3329 80.1825 37.2536C79.8458 37.1744 79.524 37.0754 79.217 36.9566C78.9199 36.8278 78.6773 36.6496 78.4892 36.4218C78.301 36.1941 78.2069 35.8772 78.2069 35.4712C78.2069 34.9761 78.4297 34.5849 78.8754 34.2978C79.321 34.0007 79.8903 33.8522 80.5835 33.8522C80.9697 33.8522 81.3608 33.9165 81.7569 34.0453C82.153 34.1641 82.4798 34.377 82.7373 34.684C82.9947 34.981 83.1136 35.4019 83.0938 35.9465H82.2025C82.2223 35.5702 82.1382 35.288 81.95 35.0999C81.7619 34.9117 81.5341 34.7879 81.2668 34.7285C81.0093 34.6592 80.7717 34.6246 80.5538 34.6246C80.128 34.6246 79.7765 34.7038 79.4992 34.8622C79.2318 35.0207 79.0982 35.2435 79.0982 35.5306C79.0982 35.8079 79.1922 36.0208 79.3804 36.1693C79.5784 36.308 79.826 36.4218 80.123 36.511C80.43 36.5902 80.7518 36.6694 81.0885 36.7486C81.4351 36.8179 81.7619 36.917 82.0689 37.0457C82.3758 37.1744 82.6234 37.3576 82.8115 37.5953C83.0096 37.8329 83.1086 38.1597 83.1086 38.5756C83.1086 39.1499 82.866 39.5708 82.3808 39.8381C81.8956 40.0956 81.2965 40.2243 80.5835 40.2243ZM90.3816 37.1051V36.3773H93.6791V37.1051H90.3816ZM108.929 35.8871C108.929 36.9863 108.721 37.8428 108.305 38.4568C107.889 39.0608 107.305 39.4817 106.552 39.7193C105.8 39.957 104.919 40.0758 103.909 40.0758H101.695V31.7133H103.909C104.919 31.7133 105.8 31.8717 106.552 32.1886C107.305 32.4956 107.889 32.956 108.305 33.57C108.721 34.1839 108.929 34.9563 108.929 35.8871ZM102.646 39.2589H104.117C104.889 39.2589 105.557 39.1747 106.122 39.0064C106.696 38.8281 107.137 38.4964 107.444 38.0112C107.761 37.5259 107.919 36.8179 107.919 35.8871C107.919 34.7483 107.572 33.9116 106.879 33.3769C106.186 32.8322 105.265 32.5599 104.117 32.5599H102.646V39.2589ZM114.082 40.2243C113.418 40.2243 112.869 40.0758 112.433 39.7787C112.007 39.4718 111.69 39.0806 111.482 38.6053C111.284 38.1201 111.185 37.62 111.185 37.1051C111.185 36.5407 111.294 36.0257 111.512 35.5603C111.74 35.085 112.066 34.7087 112.492 34.4315C112.928 34.1542 113.448 34.0156 114.052 34.0156C114.824 34.0156 115.468 34.2681 115.983 34.7731C116.498 35.2682 116.775 35.9366 116.815 36.7783C116.825 36.8179 116.829 36.8773 116.829 36.9566C116.829 37.0259 116.829 37.0902 116.829 37.1497H112.106C112.106 37.8527 112.274 38.4073 112.611 38.8133C112.958 39.2093 113.443 39.4074 114.067 39.4074C114.532 39.4074 114.928 39.2886 115.255 39.0509C115.592 38.8133 115.8 38.4914 115.879 38.0854H116.815C116.716 38.6994 116.424 39.2093 115.938 39.6153C115.453 40.0213 114.834 40.2243 114.082 40.2243ZM112.136 36.6298H115.849C115.849 36.4218 115.79 36.1743 115.671 35.8871C115.562 35.5999 115.374 35.3524 115.106 35.1444C114.849 34.9266 114.493 34.8177 114.037 34.8177C113.621 34.8177 113.28 34.9068 113.012 35.085C112.745 35.2633 112.542 35.491 112.403 35.7683C112.265 36.0455 112.175 36.3327 112.136 36.6298ZM123.694 34.0304H124.645V34.2384L122.358 40.0758H121.006L118.704 34.2384V34.0304H119.654L121.674 39.2886H121.704L123.694 34.0304ZM134.202 40.2243C133.835 40.2243 133.464 40.155 133.088 40.0164C132.711 39.8679 132.394 39.6252 132.137 39.2886C131.889 38.942 131.766 38.4716 131.766 37.8775H132.657C132.657 38.1052 132.696 38.3379 132.776 38.5756C132.865 38.8034 133.018 38.9964 133.236 39.1549C133.454 39.3133 133.766 39.3925 134.172 39.3925C134.687 39.3925 135.063 39.2539 135.301 38.9766C135.548 38.6994 135.672 38.229 135.672 37.5656V32.4856H134.023V31.7281H136.623V37.4467C136.623 38.328 136.44 39.0113 136.073 39.4965C135.717 39.9817 135.093 40.2243 134.202 40.2243ZM141.697 40.2243C141.202 40.2243 140.801 40.1352 140.494 39.957C140.197 39.7787 139.969 39.5411 139.811 39.244C139.652 38.937 139.544 38.6053 139.484 38.2488C139.435 37.8824 139.41 37.516 139.41 37.1497V34.0304H140.361V37.1645C140.361 37.5606 140.4 37.927 140.479 38.2637C140.559 38.6004 140.717 38.8677 140.955 39.0658C141.202 39.2638 141.559 39.3628 142.024 39.3628C142.47 39.3628 142.816 39.2638 143.064 39.0658C143.321 38.8578 143.509 38.5905 143.628 38.2637C143.747 37.9369 143.816 37.5953 143.836 37.2388V34.0304H144.817V40.0758H144L143.836 38.7241H143.807C143.757 38.8925 143.653 39.0955 143.495 39.3331C143.336 39.5708 143.108 39.7787 142.811 39.957C142.524 40.1352 142.153 40.2243 141.697 40.2243ZM142.277 33.2729H141.801V33.1244L142.559 31.5944H143.435V31.8172L142.277 33.2729ZM147.406 40.0758V34.0304H148.223L148.386 35.5306H148.416C148.426 35.4811 148.47 35.3771 148.549 35.2187C148.629 35.0603 148.748 34.8919 148.906 34.7137C149.074 34.5255 149.292 34.3671 149.56 34.2384C149.827 34.0997 150.169 34.0304 150.584 34.0304C151.109 34.0304 151.52 34.1245 151.817 34.3126C152.124 34.5008 152.352 34.7533 152.501 35.0702C152.649 35.3771 152.743 35.7089 152.783 36.0654C152.822 36.4218 152.842 36.7635 152.842 37.0902V40.0758H151.921V37.0902C151.921 36.4367 151.807 35.9069 151.58 35.5009C151.362 35.0949 150.926 34.8919 150.272 34.8919C149.827 34.8919 149.46 35.0008 149.173 35.2187C148.896 35.4266 148.693 35.7089 148.564 36.0654C148.445 36.4119 148.386 36.7932 148.386 37.2091V40.0758H147.406ZM156.129 33.3769C155.911 33.3769 155.763 33.3224 155.683 33.2135C155.614 33.0946 155.579 32.9461 155.579 32.7679C155.579 32.6193 155.614 32.4906 155.683 32.3817C155.763 32.2628 155.911 32.2034 156.129 32.2034C156.347 32.2034 156.49 32.2628 156.56 32.3817C156.639 32.4906 156.679 32.6193 156.679 32.7679C156.679 32.9461 156.639 33.0946 156.56 33.2135C156.49 33.3224 156.347 33.3769 156.129 33.3769ZM155.654 40.0758V34.0304H156.604V40.0758H155.654ZM162.067 40.2243C161.096 40.2243 160.369 39.9372 159.883 39.3628C159.408 38.7786 159.17 38.0359 159.17 37.1348C159.161 36.2238 159.398 35.4811 159.883 34.9068C160.379 34.3225 161.106 34.0255 162.067 34.0156C163.018 34.0156 163.735 34.3027 164.221 34.8771C164.716 35.4415 164.963 36.1941 164.963 37.1348C164.963 37.719 164.859 38.2439 164.651 38.7093C164.443 39.1747 164.127 39.546 163.701 39.8233C163.275 40.0907 162.73 40.2243 162.067 40.2243ZM162.067 39.3925C162.582 39.3925 162.978 39.2787 163.255 39.0509C163.542 38.8232 163.74 38.536 163.849 38.1894C163.968 37.8329 164.028 37.4715 164.028 37.1051C164.028 36.7387 163.968 36.3773 163.849 36.0208C163.74 35.6643 163.542 35.3722 163.255 35.1444C162.978 34.9167 162.582 34.8028 162.067 34.8028C161.552 34.8028 161.151 34.9167 160.864 35.1444C160.586 35.3722 160.388 35.6643 160.27 36.0208C160.161 36.3773 160.106 36.7387 160.106 37.1051C160.106 37.4715 160.161 37.8329 160.27 38.1894C160.388 38.536 160.586 38.8232 160.864 39.0509C161.151 39.2787 161.552 39.3925 162.067 39.3925ZM167.608 40.0758V34.0304H168.469L168.573 35.6197C168.633 35.3524 168.751 35.0949 168.93 34.8474C169.108 34.5998 169.351 34.4018 169.657 34.2532C169.974 34.0948 170.366 34.0205 170.831 34.0304H171.113V35.085H170.816C170.182 35.085 169.702 35.1791 169.375 35.3672C169.058 35.5455 168.841 35.798 168.722 36.1248C168.613 36.4515 168.558 36.8278 168.558 37.2536V40.0758H167.608Z" fill="white"/>
<path d="M2.37596 20.0611L2.88521 17.0229L15.9099 11.6715L15.3402 15.1672L6.46721 18.5075L6.60531 18.3263L6.52763 18.7578L6.43268 18.5766L14.2268 21.9169L13.6398 25.4126L2.37596 20.0611ZM28.0282 7.10554L18.8445 28.2695H15.6768L24.8605 7.10554H28.0282ZM44.2832 14.1228H40.5544C40.5659 13.6279 40.5026 13.1906 40.3645 12.8108C40.2264 12.4253 40.0193 12.0973 39.7431 11.8269C39.4726 11.5564 39.1418 11.3522 38.7505 11.214C38.3592 11.0702 37.919 10.9983 37.4299 10.9983C36.4862 10.9983 35.6202 11.2342 34.8319 11.706C34.0435 12.1779 33.3789 12.8626 32.838 13.7603C32.2971 14.6522 31.9231 15.7311 31.716 16.997C31.5146 18.2169 31.5261 19.2383 31.7505 20.0611C31.9749 20.884 32.3719 21.5055 32.9416 21.9255C33.517 22.3398 34.2334 22.547 35.0908 22.547C35.6202 22.547 36.1237 22.4808 36.6013 22.3484C37.0789 22.2103 37.5133 22.0147 37.9046 21.7615C38.3017 21.5026 38.6469 21.189 38.9404 20.8207C39.2396 20.4524 39.4726 20.0353 39.6395 19.5692H43.3941C43.1582 20.3805 42.7899 21.1631 42.2893 21.9169C41.7945 22.6707 41.1816 23.3439 40.4509 23.9366C39.7201 24.5235 38.8886 24.9896 37.9564 25.3349C37.0242 25.6801 36.0028 25.8528 34.8923 25.8528C33.2869 25.8528 31.9087 25.4845 30.7579 24.748C29.6128 24.0114 28.7871 22.9498 28.2807 21.563C27.7743 20.1762 27.6794 18.5046 27.9959 16.5482C28.3123 14.6551 28.9309 13.0496 29.8516 11.7319C30.778 10.4085 31.903 9.40435 33.2264 8.7196C34.5557 8.03485 35.977 7.69247 37.4903 7.69247C38.5433 7.69247 39.4957 7.83633 40.3473 8.12404C41.1989 8.41175 41.9239 8.83181 42.5224 9.38421C43.1266 9.93086 43.5811 10.6012 43.8861 11.3953C44.1911 12.1894 44.3234 13.0986 44.2832 14.1228ZM62.7499 17.0143C62.4276 18.9017 61.8033 20.5042 60.8769 21.8219C59.9562 23.1397 58.8312 24.1409 57.502 24.8256C56.1785 25.5104 54.7515 25.8528 53.2209 25.8528C51.6155 25.8528 50.2316 25.4874 49.0692 24.7566C47.9126 24.0258 47.0754 22.9699 46.5575 21.5889C46.0396 20.2021 45.9418 18.5305 46.264 16.5741C46.5748 14.681 47.1933 13.0755 48.1198 11.7578C49.0462 10.4344 50.1769 9.42737 51.5119 8.73686C52.8469 8.0406 54.2825 7.69247 55.8189 7.69247C57.4128 7.69247 58.7881 8.06074 59.9447 8.79728C61.107 9.53382 61.9443 10.5983 62.4564 11.9909C62.9743 13.3776 63.0721 15.0521 62.7499 17.0143ZM59.0298 16.5741C59.2312 15.36 59.2225 14.3415 59.0039 13.5186C58.791 12.69 58.3997 12.0628 57.83 11.637C57.2603 11.2112 56.5411 10.9983 55.6722 10.9983C54.7285 10.9983 53.8625 11.2342 53.0742 11.706C52.2916 12.1779 51.6298 12.8626 51.089 13.7603C50.5538 14.6522 50.1827 15.7369 49.9755 17.0143C49.7684 18.2342 49.7741 19.2527 49.9928 20.0698C50.2172 20.8869 50.6171 21.5055 51.1925 21.9255C51.7737 22.3398 52.4959 22.547 53.359 22.547C54.2969 22.547 55.1543 22.3168 55.9311 21.8565C56.7137 21.3904 57.3725 20.7143 57.9077 19.8281C58.4428 18.9362 58.8169 17.8515 59.0298 16.5741ZM70.4382 25.6111H64.0855L67.0202 7.93415H73.252C75.0301 7.93415 76.506 8.29666 77.6799 9.0217C78.8595 9.74673 79.691 10.7854 80.1743 12.1376C80.6577 13.4841 80.744 15.0924 80.4333 16.9625C80.134 18.7693 79.5385 20.3201 78.6466 21.6148C77.7547 22.9037 76.6125 23.8935 75.2199 24.584C73.8274 25.2687 72.2335 25.6111 70.4382 25.6111ZM68.3581 22.4089H70.654C71.7645 22.4089 72.737 22.2017 73.5714 21.7874C74.4115 21.3731 75.0991 20.7344 75.6343 19.8713C76.1751 19.0081 76.5578 17.9033 76.7822 16.5568C76.9951 15.2794 76.9807 14.2436 76.7391 13.4496C76.5031 12.6497 76.0457 12.0657 75.3667 11.6974C74.6877 11.3234 73.7958 11.1364 72.691 11.1364H70.231L68.3581 22.4089ZM81.769 25.6111L84.7036 7.93415H96.6148L96.0969 11.0155H87.9231L87.2326 15.2276H94.7936L94.2757 18.309H86.7147L86.0242 22.5297H94.2326L93.7147 25.6111H81.769ZM106.552 15.3139L106.077 18.2313H98.0066L98.4813 15.3139H106.552ZM108.045 25.6111L110.979 7.93415H114.717L112.3 22.5297H119.878L119.36 25.6111H108.045ZM125.333 25.6111H121.328L130.365 7.93415H135.182L138.341 25.6111H134.336L132.187 11.9736H132.049L125.333 25.6111ZM126.248 18.6629H135.708L135.208 21.5803H125.748L126.248 18.6629ZM140.468 25.6111L143.403 7.93415H150.481C151.781 7.93415 152.834 8.12692 153.64 8.51245C154.451 8.89798 155.018 9.43312 155.34 10.1179C155.662 10.7969 155.749 11.5794 155.599 12.4656C155.478 13.1561 155.234 13.7603 154.865 14.2782C154.503 14.796 154.054 15.2219 153.519 15.5556C152.984 15.8893 152.403 16.1253 151.775 16.2634L151.741 16.436C152.408 16.4648 153.01 16.6547 153.545 17.0057C154.08 17.3509 154.48 17.84 154.745 18.473C155.009 19.1059 155.07 19.8569 154.926 20.7258C154.77 21.6637 154.399 22.5009 153.812 23.2375C153.225 23.9683 152.443 24.5466 151.465 24.9724C150.492 25.3982 149.344 25.6111 148.021 25.6111H140.468ZM144.724 22.5556H147.77C148.806 22.5556 149.597 22.3542 150.144 21.9514C150.691 21.5486 151.019 21.0163 151.128 20.3546C151.203 19.8655 151.154 19.4339 150.981 19.0599C150.814 18.6859 150.53 18.3924 150.127 18.1795C149.73 17.9666 149.226 17.8602 148.616 17.8602H145.492L144.724 22.5556ZM145.923 15.3312H148.694C149.2 15.3312 149.669 15.242 150.101 15.0636C150.538 14.8795 150.898 14.6205 151.18 14.2868C151.468 13.9473 151.649 13.5474 151.724 13.087C151.827 12.4426 151.683 11.9276 151.292 11.542C150.907 11.1508 150.302 10.9551 149.479 10.9551H146.648L145.923 15.3312ZM170.71 18.4039L157.668 23.7554L158.255 20.2597L167.102 16.9193L166.973 17.1006L167.051 16.669L167.137 16.8503L159.369 13.51L159.938 10.0143L171.22 15.3657L170.71 18.4039Z" fill="url(#paint0_linear_5_2301)"/>
<defs>
<linearGradient id="paint0_linear_5_2301" x1="86.5" y1="32.6111" x2="86.5" y2="0.611084" gradientUnits="userSpaceOnUse">
<stop stop-color="#5200FF"/>
<stop offset="1" stop-color="#8761F5"/>
</linearGradient>
</defs>
</svg>
